<?xml version="1.0" encoding="UTF-8"?>
<svg xmlns="http://www.w3.org/2000/svg" width="627" height="201" viewBox="0 0 627 201" fill="none"><path d="M471.384 54.0009C470.191 53.9975 469.029 54.0043 467.883 54.0118C444.253 54.0118 425.098 74.9375 425.098 100.751C425.098 126.564 444.253 147.49 467.883 147.49C470.353 147.49 472.772 147.485 475.061 147.49C484.666 147.49 493.523 144.039 500.662 138.201L492.644 125.512C488.253 129.088 482.353 131.389 474.818 132.127C473.328 132.125 471.744 132.127 470.136 132.127C454.749 132.127 442.271 117.171 442.271 100.684C442.271 81.3017 455.882 69.4184 470.136 69.4184C471.629 69.4071 473.178 69.4184 474.818 69.4184C479.438 69.9124 489.329 72.4708 490.214 78.4525C490.214 78.4525 490.241 83.4619 490.237 85.6423C490.237 85.6423 505.124 85.6378 505.213 85.6423V73.1513C505.213 70.5808 504.029 66.6222 501.778 64.3712C494.754 57.3475 482.527 54.0118 475.062 54.0118C473.803 54.0118 472.578 54.0028 471.385 54.0009H471.384ZM70.5251 55.7459L38 145.866H49.6847L82.1987 55.7459H70.5251V55.7459ZM96.3242 55.7459L63.8102 145.866H75.4838L107.998 55.7459H96.3242V55.7459ZM122.212 55.7459L89.6866 145.866H101.758L101.769 145.833C105.314 145.826 108.308 143.461 109.257 140.222L115.674 122.585H146.045L152.462 140.222C153.412 143.465 156.412 145.833 159.961 145.833C160.137 145.833 160.307 145.824 160.48 145.81L160.503 145.865H172.187L172.176 145.842H174.429V131.706H168.465C167.414 131.575 166.602 130.222 166.212 129.309L139.662 55.7441H122.212L122.212 55.7459ZM278.045 55.7459L245.52 145.866H257.591L257.602 145.833C261.147 145.826 264.141 143.461 265.09 140.222L271.507 122.585H301.878L308.295 140.222C309.245 143.465 312.245 145.833 315.794 145.833C315.97 145.833 316.14 145.824 316.313 145.81L316.336 145.865H328.02L328.012 145.842H330.265V131.706H324.301C323.249 131.575 322.437 130.222 322.048 129.309L295.498 55.7441H278.048L278.045 55.7459ZM535.782 55.7459L503.257 145.866H515.328L515.34 145.833C518.884 145.826 521.879 143.461 522.828 140.222L529.245 122.585H559.616L566.033 140.222C566.983 143.465 569.982 145.833 573.532 145.833C573.708 145.833 573.877 145.824 574.051 145.81L574.074 145.865H585.759L585.747 145.842H588V131.706H582.036C580.985 131.575 580.173 130.222 579.783 129.309L553.233 55.7441H535.783L535.782 55.7459ZM354.294 55.7568V55.7899H339.494V145.877H349.081C349.118 145.877 349.154 145.877 349.191 145.877C352.876 145.877 355.862 142.891 355.862 139.206C355.862 138.849 355.827 138.499 355.773 138.157V90.8993C355.749 87.9836 355.114 86.3038 355.177 83.6211C356.744 85.9598 357.768 88.4043 361.991 94.7757C371.094 108.508 386.611 130.601 396.604 145.314L396.825 145.877H396.979C397.027 145.947 397.086 146.028 397.134 146.098V145.877H411.911V71.6382C411.911 70.711 412.621 69.9406 413.523 69.8491C415.689 69.86 417.869 69.8709 420.039 69.8822V55.7898H402.06H401.949C398.265 55.7898 395.278 58.7759 395.278 62.4605C395.278 62.8175 395.313 63.1679 395.367 63.5097V107.465C395.302 111.137 396.059 114.759 395.963 118.421C394.852 116.69 393.657 113.697 390.496 108.912C381.449 95.2139 364.786 71.233 354.316 55.7898C354.309 55.7797 354.3 55.7669 354.293 55.7564L354.294 55.7568ZM203.817 55.7786C193.664 55.7993 183.609 55.8669 173.401 55.8669V69.8599H181.53C181.265 92.6984 181.718 115.492 181.718 138.08C181.718 138.08 180.796 145.722 189.802 145.722H214.806C234.767 145.722 243.653 132.772 243.653 120.497V118.156C243.653 118.142 243.653 118.126 243.653 118.112C243.653 109.406 237.79 101.904 229.207 98.2543C235.784 95.0072 240.296 88.2426 240.296 80.3849V78.0435C240.296 78.0289 240.296 78.0142 240.296 77.9994C240.296 65.689 228.573 55.7785 214.011 55.7785C210.595 55.7714 207.201 55.7714 203.817 55.7785L203.817 55.7786ZM204.491 69.904C206.478 69.8969 208.442 69.8988 210.565 69.9149C219.707 69.9149 223.111 73.0974 223.553 81.1579V82.3617C223.553 86.46 219.599 92.4339 213.701 92.4339H198.273V69.937C200.493 69.9291 202.503 69.9115 204.491 69.9039V69.904ZM130.937 72.6541L131.014 73.0958C133.331 83.0908 137.882 96.1864 142.323 109.122L142.334 109.145H119.539L119.548 109.122C123.989 96.1864 128.54 83.0908 130.857 73.0958L130.935 72.654L130.937 72.6541ZM286.77 72.6541L286.847 73.0958C289.164 83.0908 293.715 96.1864 298.156 109.122L298.165 109.145H275.37L275.381 109.122C279.822 96.1864 284.373 83.0908 286.69 73.0958L286.768 72.6541H286.77ZM544.507 72.6541L544.585 73.0958C546.902 83.0908 551.453 96.1864 555.894 109.122L555.905 109.145H533.11L533.122 109.122C537.563 96.1864 542.114 83.0908 544.431 73.0958L544.509 72.6541H544.507ZM213.746 105.875C221.888 105.775 226.74 110.582 226.678 118.819V120.199C226.678 124.888 222.238 131.729 215.612 131.729H198.273V105.985C203.355 106.004 208.78 105.944 213.746 105.875V105.875Z" fill="#0a1a3a"/></svg>
