<svg width="552" height="184" viewBox="0 0 552 184" fill="none" xmlns="http://www.w3.org/2000/svg">
<circle cx="92" cy="92" r="92" fill="#0097DC"/>
<path d="M110.799 65.54C92.6856 65.54 78.0038 80.229 78.0038 98.3508V98.7799C78.0038 118.024 93.5764 133.604 112.811 133.604C124.359 133.604 134.553 127.993 140.888 119.344L127.394 109.343C124.656 114.492 119.245 118.024 113.009 118.024C105.355 118.024 98.9542 112.743 97.2056 105.646H142.736C142.769 105.58 142.769 105.547 142.802 105.481C142.868 105.151 142.967 104.821 142.999 104.49C143.362 102.51 143.56 100.43 143.56 98.3508C143.593 80.229 128.912 65.54 110.799 65.54ZM98.7563 90.8908C100.307 85.4114 105.322 81.3843 111.293 81.3843C117.265 81.3843 122.28 85.4114 123.831 90.8908H98.7563Z" fill="white"/>
<path d="M71.4146 65.54H49.1661V133.604H71.4146V65.54Z" fill="white"/>
<circle cx="60.3217" cy="47.6844" r="13.3107" fill="white"/>
<path d="M220.706 84H231.287C236.681 84 241.375 81.3649 241.375 75.5182C241.375 72.5536 239.852 69.5891 236.64 68.6421V68.5598C238.863 67.3657 240.181 65.0188 240.181 62.3013C240.181 57.4839 236.434 54.7665 231.164 54.7665H220.706V84ZM226.017 66.7069V59.3368H231.082C233.552 59.3368 234.787 60.8602 234.787 62.9601C234.787 65.06 233.47 66.7069 231.164 66.7069H226.017ZM226.017 79.4297V70.989H231.699C234.375 70.989 235.94 72.7595 235.94 75.1888C235.94 77.6592 234.417 79.4297 231.699 79.4297H226.017ZM246.711 73.5006C246.711 80.0473 251.446 84.4941 258.528 84.4941C265.569 84.4941 270.304 80.0473 270.304 73.5006V54.7665H264.992V73.4595C264.992 77.4122 262.399 79.6356 258.487 79.6356C254.575 79.6356 252.023 77.4122 252.023 73.5006V54.7665H246.711V73.5006ZM275.096 80.5002C275.096 80.5002 278.679 84.4941 285.184 84.4941C291.278 84.4941 294.819 80.5826 294.819 75.9299C294.819 66.5834 281.067 67.8598 281.067 62.6719C281.067 60.6132 283.002 59.1721 285.472 59.1721C289.137 59.1721 291.937 61.7249 291.937 61.7249L294.242 57.4016C294.242 57.4016 291.278 54.2724 285.514 54.2724C279.914 54.2724 275.714 57.8957 275.714 62.7542C275.714 71.7302 289.507 70.8243 289.507 76.0534C289.507 78.4415 287.49 79.5944 285.266 79.5944C281.149 79.5944 277.979 76.5063 277.979 76.5063L275.096 80.5002ZM300.118 84H305.43V54.7665H300.118V84ZM312.824 84H318.136V67.1598C318.136 65.4305 317.848 62.6307 317.848 62.6307H317.93C317.93 62.6307 319.248 65.4717 320.359 67.1598L331.435 84H336.705V54.7665H331.435V71.6478C331.435 73.3771 331.723 76.1769 331.723 76.1769H331.641C331.641 76.1769 330.323 73.3359 329.212 71.6478L318.136 54.7665H312.824V84ZM344.107 84H362.265V79.4297H349.418V71.5655H359.259V66.9951H349.418V59.3368H361.606V54.7665H344.107V84ZM365.567 80.5002C365.567 80.5002 369.149 84.4941 375.654 84.4941C381.748 84.4941 385.289 80.5826 385.289 75.9299C385.289 66.5834 371.537 67.8598 371.537 62.6719C371.537 60.6132 373.472 59.1721 375.943 59.1721C379.607 59.1721 382.407 61.7249 382.407 61.7249L384.713 57.4016C384.713 57.4016 381.748 54.2724 375.984 54.2724C370.384 54.2724 366.184 57.8957 366.184 62.7542C366.184 71.7302 379.978 70.8243 379.978 76.0534C379.978 78.4415 377.96 79.5944 375.737 79.5944C371.619 79.5944 368.449 76.5063 368.449 76.5063L365.567 80.5002ZM388.365 80.5002C388.365 80.5002 391.947 84.4941 398.453 84.4941C404.547 84.4941 408.088 80.5826 408.088 75.9299C408.088 66.5834 394.335 67.8598 394.335 62.6719C394.335 60.6132 396.271 59.1721 398.741 59.1721C402.406 59.1721 405.205 61.7249 405.205 61.7249L407.511 57.4016C407.511 57.4016 404.547 54.2724 398.782 54.2724C393.183 54.2724 388.983 57.8957 388.983 62.7542C388.983 71.7302 402.776 70.8243 402.776 76.0534C402.776 78.4415 400.759 79.5944 398.535 79.5944C394.418 79.5944 391.247 76.5063 391.247 76.5063L388.365 80.5002ZM218.482 125.5C218.482 125.5 222.064 129.494 228.57 129.494C234.664 129.494 238.205 125.583 238.205 120.93C238.205 111.583 224.452 112.86 224.452 107.672C224.452 105.613 226.388 104.172 228.858 104.172C232.523 104.172 235.322 106.725 235.322 106.725L237.628 102.402C237.628 102.402 234.664 99.2724 228.899 99.2724C223.3 99.2724 219.1 102.896 219.1 107.754C219.1 116.73 232.893 115.824 232.893 121.053C232.893 123.442 230.876 124.594 228.652 124.594C224.535 124.594 221.364 121.506 221.364 121.506L218.482 125.5ZM241.487 114.26C241.487 122.865 247.663 129.494 256.597 129.494C264.05 129.494 268.085 124.759 268.085 124.759L265.285 120.93C265.285 120.93 261.868 124.636 256.803 124.636C250.71 124.636 246.963 119.736 246.963 114.177C246.963 108.742 250.586 104.131 256.762 104.131C261.415 104.131 264.75 107.219 264.75 107.219L267.303 103.266C267.303 103.266 263.638 99.2724 256.515 99.2724C247.91 99.2724 241.487 105.778 241.487 114.26ZM272.977 129H278.289V116.73H291.67V129H296.982V99.7665H291.67V112.16H278.289V99.7665H272.977V129ZM302.363 114.177C302.363 122.783 308.868 129.494 317.474 129.494C326.079 129.494 332.585 122.783 332.585 114.177C332.585 105.819 326.079 99.2724 317.474 99.2724C308.868 99.2724 302.363 105.819 302.363 114.177ZM307.839 114.177C307.839 108.413 312.121 104.131 317.474 104.131C322.826 104.131 327.109 108.413 327.109 114.177C327.109 120.189 322.826 124.636 317.474 124.636C312.121 124.636 307.839 120.189 307.839 114.177ZM335.978 114.177C335.978 122.783 342.483 129.494 351.089 129.494C359.694 129.494 366.199 122.783 366.199 114.177C366.199 105.819 359.694 99.2724 351.089 99.2724C342.483 99.2724 335.978 105.819 335.978 114.177ZM341.454 114.177C341.454 108.413 345.736 104.131 351.089 104.131C356.441 104.131 360.723 108.413 360.723 114.177C360.723 120.189 356.441 124.636 351.089 124.636C345.736 124.636 341.454 120.189 341.454 114.177ZM371.61 129H389.562V124.43H376.921V99.7665H371.61V129Z" fill="#0F0F0F"/>
</svg>
